<?xml version="1.0" encoding="utf-8"?>
<!DOCTYPE svg PUBLIC "-//W3C//DTD SVG 1.0//EN" "http://www.w3.org/TR/2001/REC-SVG-20010904/DTD/svg10.dtd">
<svg version="1.0" xmlns="http://www.w3.org/2000/svg" width="105px" height="105px" viewBox="0 0 105 105" preserveAspectRatio="xMidYMid meet">
 <g fill="#ff8b00">
  <path d="M44.60 99.45 c-5.95 -0.70 -9.10 -3.20 -11.45 -9 -3 -7.50 -1.20 -15.10 5 -20.75 3.70 -3.40 6.65 -4.85 16 -8.05 9.05 -3.05 14.25 -5.35 18.45 -8.20 3.80 -2.60 4 -3.10 0.70 -1.95 -5.05 1.75 -12 3.45 -20.30 5 -16.85 3.15 -20.95 4.55 -25.55 8.85 -2.90 2.70 -4.60 5.40 -5.45 8.65 -1.25 4.60 -0.35 11.40 2 15.35 2.05 3.45 -0.20 2.55 -3.90 -1.60 -4.50 -5.10 -7 -11.90 -6.45 -17.75 0.45 -4.75 2.15 -8.40 5.55 -11.80 5.45 -5.45 13.95 -8.55 28.55 -10.45 20.60 -2.60 30.30 -6.05 38.35 -13.65 1.80 -1.75 3.75 -4.05 4.30 -5.15 l1 -2.05 1.20 1.90 c4.45 7.15 6.45 15.55 6.15 25.20 -0.25 6.75 -1.05 10.95 -3.30 16.30 -6.30 15.25 -19.40 25.95 -35.45 28.90 -3.10 0.60 -11.65 0.75 -15.40 0.25z"/>
  <path d="M5.25 62.90 c-1.55 -6.55 -1.25 -17.40 0.65 -23.65 0.95 -3.20 3.35 -8.60 4.80 -11 10.60 -17.50 30.10 -26 50.50 -22.15 2.50 0.45 3.35 0.95 5.30 2.85 3.05 2.95 3.55 5.10 1.95 8.40 -2.05 4.25 -7.55 7.10 -20.10 10.45 -7.20 1.90 -10.90 3.05 -12.85 4.10 -1.10 0.60 -0.90 0.65 2 0.40 1.80 -0.20 3.95 -0.40 4.75 -0.55 0.85 -0.10 4.85 -0.60 9 -1 10.45 -1.10 11 -1.20 15.50 -2.35 4.35 -1.05 9.05 -3.30 10.75 -5.15 1.65 -1.75 2.40 -4.50 1.95 -6.90 -0.20 -1.15 -0.30 -2.15 -0.25 -2.20 0.05 -0.05 1 0.65 2.15 1.50 6.95 5.35 4.85 11.70 -5.60 16.80 -5.60 2.70 -12.40 4.25 -25.25 5.80 -22.80 2.75 -32.95 6.95 -39.50 16.50 -1.65 2.45 -4 8.20 -4 9.95 0 2.65 -0.95 1.65 -1.75 -1.80z"/>
 </g>
</svg>